<svg width="46" height="46" viewBox="0 0 46 46" fill="none" xmlns="http://www.w3.org/2000/svg">
<g style="mix-blend-mode:screen">
<path d="M13.9 0.400024L17.9 4.20001C19.4 5.60001 20.2 7.50002 20.2 9.60002C20.2 11.6 21 13.5 22.4 14.9L22.9 15.4L27.5 0.500015" fill="url(#paint0_linear_2_66)"/>
<path d="M0.300003 13.7L5.8 13.5C7.8 13.4 9.8 14.2 11.2 15.6C12.6 17 14.5 17.7 16.5 17.7H17.2L9.8 4" fill="url(#paint1_linear_2_66)"/>
<path d="M0.300003 32.7L4 28.7C5.4 27.2 7.3 26.3 9.3 26.3C11.3 26.3 13.1 25.4 14.5 24L15 23.5L0 19.2" fill="url(#paint2_linear_2_66)"/>
<path d="M13.9 45.9L13.6 40.4C13.5 38.4 14.2 36.4 15.6 34.9C16.9 33.5 17.7 31.5 17.6 29.6V28.9L4 36.6" fill="url(#paint3_linear_2_66)"/>
<path d="M32.9 45.5L28.8 41.9C27.3 40.6 26.4 38.7 26.3 36.6C26.2 34.6 25.3 32.8 23.9 31.4L23.4 30.9L19.4 46" fill="url(#paint4_linear_2_66)"/>
<path d="M45.9 31.6L40.4 32C38.4 32.2 36.4 31.5 34.9 30.1C33.4 28.8 31.5 28.1 29.5 28.2H28.8L36.8 41.6" fill="url(#paint5_linear_2_66)"/>
<path d="M45 12.7L41.5 16.9C40.2 18.4 38.3 19.4 36.3 19.5C34.3 19.6 32.5 20.5 31.2 22L30.8 22.5L46 26.1" fill="url(#paint6_linear_2_66)"/>
<path d="M30.9 0L31.4 5.5C31.6 7.5 31 9.50001 29.6 11.1C28.3 12.6 27.7 14.5 27.8 16.5L27.9 17.2L41.1 8.90001" fill="url(#paint7_linear_2_66)"/>
</g>
<defs>
<linearGradient id="paint0_linear_2_66" x1="20.7" y1="0.400024" x2="20.7" y2="15.4" gradientUnits="userSpaceOnUse">
<stop stop-color="#0767F7"/>
<stop offset="1" stop-color="#0FDAC1"/>
</linearGradient>
<linearGradient id="paint1_linear_2_66" x1="8.75" y1="4" x2="8.75" y2="17.7" gradientUnits="userSpaceOnUse">
<stop stop-color="#0767F7"/>
<stop offset="1" stop-color="#0FDAC1"/>
</linearGradient>
<linearGradient id="paint2_linear_2_66" x1="7.5" y1="19.2" x2="7.5" y2="32.7" gradientUnits="userSpaceOnUse">
<stop stop-color="#0767F7"/>
<stop offset="1" stop-color="#0FDAC1"/>
</linearGradient>
<linearGradient id="paint3_linear_2_66" x1="10.8042" y1="28.9" x2="10.8042" y2="45.9" gradientUnits="userSpaceOnUse">
<stop stop-color="#0767F7"/>
<stop offset="1" stop-color="#0FDAC1"/>
</linearGradient>
<linearGradient id="paint4_linear_2_66" x1="26.15" y1="30.9" x2="26.15" y2="46" gradientUnits="userSpaceOnUse">
<stop stop-color="#0767F7"/>
<stop offset="1" stop-color="#0FDAC1"/>
</linearGradient>
<linearGradient id="paint5_linear_2_66" x1="37.35" y1="28.1906" x2="37.35" y2="41.6" gradientUnits="userSpaceOnUse">
<stop stop-color="#0767F7"/>
<stop offset="1" stop-color="#0FDAC1"/>
</linearGradient>
<linearGradient id="paint6_linear_2_66" x1="38.4" y1="12.7" x2="38.4" y2="26.1" gradientUnits="userSpaceOnUse">
<stop stop-color="#0767F7"/>
<stop offset="1" stop-color="#0FDAC1"/>
</linearGradient>
<linearGradient id="paint7_linear_2_66" x1="34.4447" y1="0" x2="34.4447" y2="17.2" gradientUnits="userSpaceOnUse">
<stop stop-color="#0767F7"/>
<stop offset="1" stop-color="#0FDAC1"/>
</linearGradient>
</defs>
</svg>
